<?xml version="1.0" encoding="utf-8"?>
<!-- Generator: Adobe Adobe Illustrator 24.2.0, SVG Export Plug-In . SVG Version: 6.00 Build 0)  -->
<svg version="1.1" id="Layer_1" xmlns="http://www.w3.org/2000/svg" xmlns:xlink="http://www.w3.org/1999/xlink" x="0px" y="0px"
	 viewBox="0 0 1440 4200" style="enable-background:new 0 0 1440 4200;" xml:space="preserve">
<style type="text/css">
	.st0{fill:none;stroke:#FF4D88;stroke-width:11;stroke-miterlimit:10;}
	.st1{fill:none;stroke:#66CC00;stroke-width:10;stroke-miterlimit:10;}
	.st2{fill:none;stroke:#00CCFF;stroke-width:10;stroke-miterlimit:10;}
</style>
<path class="st0" d="M720,0c2.92,114.06,0,591.33,0,698.17c0,175.05,12.27,333.24-1.62,499.24c0,4-9,21-11.7,23.76
	c0.39-0.63,0.8-1.26,1.2-1.89c-2.93,3.82-24.35,46.89-65.45,43.15c-33.98-5-63.07-7.72-98.93-13c-10.99-1-21.98-3-32.98-4
	c-48.97-7-100.94-16.19-144.9-12.01c-38.97,4-91.57,12.88-111.92,35.02c-5.6,4.5-32.34,44.52-35.97,53.03
	c-0.67,1.6-7.08,15.52-7.99,24.01c-1.22,5.85,2.71,30.79,7.06,36.22c1.57,1.95,3.31,3.57,5.3,5.09
	c13.89,10.61,42.06,12.05,43.6,11.46c1.8-0.29,3.59-1.07,4.5-1.5c1.29-0.61,4.16-2.18,5-3c4.28-4.28,38.67-41.82,38.67-41.84
	c0,0-0.01,0.01,0,0c0.01,0-35.02,68.73-50.14,105.85c-4.3,10.54-8.39,21.17-12.26,31.88c5.66-24.03,13.92-47.35,23.85-69.93
	c14.37-30.21,28.36-60.23,45.35-90.24c4-5,8.99-11.01,15.99-10c16.99,1,29.98,24.01,22.98,40.02
	c-7.99,15.01-25.98,21.01-41.97,22.01c-5,0-9.99-3-12.9-6.92c0.18,0.33,0.12,0.11,0,0c0.33,0.33,7.85,6.71,14.72,6.28
	c10.86-0.68,28.09-5.76,38.24-9.57c24.2-9.09,47.36-24.97,60.88-47.44c6.26-10.4,9.64-21.35,9.74-33.53
	c0.06-7.32-6.95-8.4-12.34-5.02c-7.2,4.52-13.31,11.99-18.02,19.01c-5.05,7.54-9.08,15.72-12.17,24.25
	c-2.73,7.54-5.39,15.95-4.74,24.08c1.13,14.05,12.32,30.01,28.03,27.44c17.88-2.92,24.7-23.69,34.97-35.9
	c4.93-5.86,15.85-14.86,23.98-14.44c6.65,0.34,15.61,8.86,16.21,9.51c0.29,0.31-1.85-1.53-6.64-5.71
	c-7.2-6.29-16.97-3.99-23.62,1.77c-6.74,5.83-14.08,31.23-9.23,39.35c6.39,10.7,20.94-6.44,24.57-10.06
	c0.82-0.82,11.51-12.49,13.88-22.34c-0.28,4.13-4.77,13.24-5.63,16c-0.15,1.07-2.54,9.99-2.54,11.99c2.65,6.16,7.5,6.28,8.49,5.75
	c4.97-2.64,19.44-23.35,26.23-34.77c3.54-6.59,12.56-12.15,13.99-12c1,0,0,4.25,0,4.25c0.18,0.68-11.52,51.71-11.5,51.68
	c0.01-0.01,0.51-0.74,0.5-0.75c-0.04,0.02,7.7-17.71,13.29-28.55c4.35-8.44,8.5-18.54,14.99-25.6c13.13-14.28,30.7,3.74,29.53,18.68
	c-0.85,10.81-11.97,29.75-15.08,35.05c12.43,0,20.75,3.53,27.42-0.9c6.06-5.09,5.76-16.27,14.55-21.59c7.05-4.27,15.9,0.16,19.99,7
	c4,5,3,12.01,3,18.01c-3,19.01-7.99,38.02-23.98,50.02c-14.99,12.01-31.98,18.01-46.97,30.01c-5,5-8.99,9-12.99,15.01
	c-10.99,17.01-7.99,38.02,0.01,57.03c12.99,28.01,18.4,31.48,40.95,54.02c8.99,7,24.31,20.17,34.99,27.01
	c10.22,7.16,20.26,12.46,37.99,15.01c16.04,0.95,16.78,1.42,24.97,0c15.99-4,35.97,4,38.97,21.01c2,257.12,4,515.24,0.26,772.3
	c0-0.61-0.05-1.2-0.09-1.81c0,17.43,0.45,55.26-1.05,61.12c-1.18,8.9-14.49,89.66-49.52,118.6c-22.2,18.34-49.66,29.06-77.21,37.46
	c-91.42,27.88-189.62,33.21-283.52,15.39c-33.41-6.34-66.46-15.58-100.42-17.45c-39.18-2.15-69.87,10.79-105.2,27.86
	c-25.4,12.27-40.78,22.97-57.86,47.22c-11.1,15.76-20.89,41.41-21.58,60.68c-0.96,26.87-1.05,54.82,10.23,79.22
	c11.28,24.4,37.21,44.12,63.94,41.55c49.64-10.77,101.2-58.47,126.3-79.62c7.39-6.23,11.1-20.42,5.26-26.25
	c-6.11-6.11-16.1-5.22-24.01-1.73c-21.15,9.34-38.23,31.06-35.79,54.05c2.44,22.99,22.9,36.54,43.19,25.46
	c11.48-6.27,19.57-19.84,27.77-30.02c9.36-11.62,14.23-23.7,14.23-23.7c1.93-4.74,6.36-17.64,10.7-20.35
	c11.95-7.47,13.81,21.9,16.38,35.76c2.56,13.86,3.96,24.43,15.18,32.95c14.34,10.89,25.92,0.95,37.43-12.89
	c14.31-17.21,22.3-24,26.8-45.92c-5.36,17.1-23.05,50.7-34.65,80.95c-12.09,31.52-21.18,58.03-33.26,89.55
	c16.91-49.37,36.12-101.28,55.62-149.69c3.98-9.88,18.29-28.14,26.39-35.07s22.21-6.34,30.24,0.66c5.22,4.55,12.03,14.09,11.19,27.4
	c-0.58,9.09-9.36,24.86-24.14,30.38s-37.73-0.8-38.09-4.02c15.97,18.27,51.53,15.86,74.45,7.9c22.92-7.96,43.66-25.22,52.97-47.63
	c8-19.25,13.83-38.66,20.36-62.03c3.35-12,7.53-24.74-3.49-31.89c-10.9-4.28-18.45,2.83-23.8,15.61
	c-13.97,33.37-12.77,36.71-22.13,83.79c-2.8,14.11,1.49,37.4,14.37,43.81c9.04,4.5,20.41,0,27.21-7.47
	c6.8-7.47,10.27-17.28,14.29-26.54c6.58-15.17,16.57-30.74,32.47-35.27c15.9-4.53,36.36,9.84,31.39,25.61
	c2.79-13.3-9.98-26.7-23.57-26.66c-13.59,0.03-25.57,11.28-28.91,24.44c-2.93,11.52,0.34,24.82,9.43,32.47s23.94,8.17,32.58,0.01
	c7.58-7.16,9.09-18.5,9.92-28.89c1.01-12.55-1.4-29.28-13.84-31.25c-9.52-1.51-17.95,9.44-15.65,18.8s12.68,15.26,22.28,14.46
	s16.08-4.08,21.75-11.88c5.67-7.79,12.94-30.03,16.02-39.17c6.59,9.22,17.4,16.83,27.72,21c-6.88,6.25-16.94,20.74-20.77,29.21
	s-3.59,22.5,3.07,28.97c5.6,5.44,10.22,11.41,17.98,10.48c28.64-3.42,44.14-43.16,59.71-69.09c2.97-4.94-8.8-14.49-14.49-13.54
	c-8.32,1.39-12.42,5.65-17.25,11.24c-8.21,9.5-9.65,23.69-9.02,36.23c0.63,12.54,25.04,49.41,44.52,22.59
	c24.56-30.1,41.93-59.78,34.08-74.81c-4.44-8.48-49.01-61.06-93.49-71.71c-82.58-19.78-204.03-5.21-252.91,43.68
	c-18.04,18.04-42.08,75.51-54.92,71.57c-20.18-6.19-7.12-35.89-17.46-18.81c-26.81,44.3-75.83,90.41-71.63,119.21
	c2.75,21.32,20.36,16.67,30.91,12.89c88.81-31.83,194.95-57.77,290.85-42.51c35.09,5.58,67.47,21.5,94.25,44.86
	c9.4,8.2,22.85,22.19,30.74,33.06c8.71,12,27.03,37.24,30.66,45.19c5.09,11.14,26.49,60.98,10.24,77.22
	c-22.79,18.71-69.73-35.43-91.85-50.3c-38.27-25.74-112.37-35.46-160.34-7.59c-43.29,25.15-75.25,76.53-72.04,126.49
	c4.28,66.54-0.6,57.01,9.35,82.81c9.84,25.51,27.57,48.09,46.9,67.43c26.29,26.29,62.81,43.43,101.07,57.08
	c34.37,12.27,87.19,13.64,113.21,9.62c0.36,0,0.73,0,0.94-0.05c10.38,0.04,21.08,0.14,30.64,4.18c9.56,4.04,17.81,13.05,19.62,23.74
	c-0.07,271.93,1.57,543.86,6.63,815.75c0,0.35,0,0.69,0,1.04c-1.04,0.35-2.07,0.69-3.11,1.04"/>
<path class="st1" d="M758.41,0c0-0.45,0,360.45,0,360c0,0.9,0-8.17,0-7.28c-0.67,114.61-1.02,229.22,0.39,343.81
	c-1.46,175.24-1.35,344.27-2.77,514.12c-0.73,50.79,0.06,101.58-2.18,152.37c0,2.36-0.83,12.13-0.76,14.57
	c0.01,0.28,0.1,0.58,0.01,0.84c-4.82,14.19-2.95,9.96-7.41,16.8c-0.11,0.17-0.22,0.34-0.33,0.5c-8.32,11.49-19.62,17.26-32.41,21.38
	c-18.19,4.98-34.87,6.64-53.07,11.62c-16.68,4.15-30.32,11.64-44.72,22.45c-18.95,14.14-33.34,34.12-34.08,59.09
	c0,5.69,1.45,11.38,3.64,16.29c0.11,0.24,0.23,0.48,0.36,0.71c3.81,6.52,9.77,12.21,15.73,15.49c1.41,0.78,3.48,1.55,4.99,2.33
	c0.22,0.11,0.44,0.22,0.67,0.3c19.62,7.27,40.94,1.56,58.03-15.91c0.76-0.83-0.76,0.83,0,0c21.97-22.47,43.82-63.1,56.02-92.1
	c-9.28,22.95-6.82,16.31,0,0c-9.92,24.84-25.71,59.64-34.03,85.45c-0.76,2.5,0,5.83,2.28,7.5c2.28,1.67,4.55,2.5,7.58,1.67
	c16.09-3.52,30.53-14.85,36.58-31.54c1.36-3.74,5.6-5.05,8.59-2.71c1.79,1.4,3.74,2.57,5.77,3.48c3.35,1.49,4.52,6.08,2.48,9.34
	c-2.97,4.73-5.28,9.94-7.49,15.23c-0.83,2-1.7,7.36-0.54,9.15c2.69,4.17,7.96,3.76,12.23,0.41c4.31-3.16,7.26-7.06,10.79-11.01
	c0.36-0.4,0.67-0.85,0.92-1.34c0.72-1.42,1.84-3.21,3-4.6c0.29-0.35,0.56-0.74,0.77-1.16c4.36-8.8,8.12-16.8,16.08-22.47
	c0.18-0.13,0.36-0.25,0.55-0.35c7.62-4.37,19.81-2.93,22.74,6.1c0.21,0.64-0.55,1.12-0.95,0.59c-6.02-8.05-0.73,4.15-0.38,2.95
	c-7.66-21.83-26.86-9.76-31.51,4.53c-2.15,6.63-1.33,14.59,2.8,20.11c5.18,6.93,13.38,7.52,19.76,2.23
	c7.64-6.33,8.77-18.65,9.98-28.39c-2.2,7.21-3.86,15.78-4.57,23.41c-0.02,0.24-0.03,0.46-0.03,0.7c0,3.26-1.33,7.97,0.86,9.58
	c5.06,3.97,12.18,4.92,16.12-1.48c0.53-0.86,1.25-1.55,2.08-2.05c0.25-0.15,0.51-0.34,0.76-0.62c8.33-10.82,12.87-24.14,15.27-37.57
	c3.21,4.46-1.08,7.46,0,0c3.52,4.12,1.55,8.9,1.4,13.71c-0.01,0.37-0.04,0.73-0.1,1.09c-1.59,8.22-8.72,18.9-2.96,25.11
	c1.65,1.78,4.16,2.34,6.26,1.28c1.49-0.75,2.9-2,4.11-3.29c0.19-0.21,0.37-0.43,0.54-0.66c8.22-11.58,14.88-25.6,13.55-40.36
	c1.64,7.72,0.89,8.92,0,0c3.63,20.74,26.37,14.09,39.25,8.27c5.21-2.54,8.21-8.48,7.64-14.12c-0.33-3.28-2.95-5.71-5.95-5.57
	c-3.64,0.17-7.19,1.68-10.38,2.87c-0.28,0.11-0.56,0.23-0.82,0.38c-7.37,4.23-12.51,12.42-13.99,21.41c-1.48,9-1.5,18.8,4.25,26.25
	c0.26,0.34,0.56,0.66,0.89,0.92c0.82,0.66,2.02,1.31,3.21,1.97c6.07,3.33,13.65,4.17,20.47,3.34c7.45-0.81,11.23-8.86,14.95-15.45
	c0.14-0.24,0.26-0.48,0.36-0.74c0.61-1.65,0.71-3.9,2.11-5.44c0.76-0.83,0-2.5,0.76-3.33c9.81-16.58,18.11-32.34,27.91-48.92
	c0.07-0.12,0.14-0.25,0.21-0.38c3.69-7.31,6.65-13.85,8.17-21.96c0.04-0.22,0.08-0.44,0.1-0.65c0.55-5.24-1.93-10.44-5.79-13.16
	c-0.66-0.46-1.4-0.76-2.17-0.89c-3.42-0.58-6.78-0.22-9.52,3.54c-14.39,22.47-18.92,48.28-18.15,74.09
	c0.77,11.66,5.32,21.65,11.39,32.48c2.54,4.64,9.88,3.56,10.86,3.38c0.33-0.06,0.66-0.33,0.95-0.51
	c0.53-0.33,12.69-12.07,17.14-15.85c14.02-13.26,21.71-21.82,29-40.49c7.29-18.67,8.63-40.83,0.52-59.12
	c-2.79-6.29-6.68-12.06-11.74-16.31c-17.35-14.56-42.97-7.38-60.86,6.31c-17.89,13.69-32.06,33-51.12,44.64
	c-9.42,5.75-19.77,9.46-30.21,12.39c-47.91,13.47-98.72,3.15-147.6,11.4c-33.51,5.66-45.6-27.54-60.24-10.71
	c-16.51,18.99-13.49,79.85-1.3,102.48c4.55,8.45,10.5,16.33,18.43,20.86c9.94,5.68,21.7,5.46,32.89,5.1
	c15.31-0.48,30.62-0.97,45.93-1.45c7.7-0.24,24.83-4.9,21.6,5.99c0-0.17,0-0.34,0-0.52h-0.01l3.55,1516.32
	c-0.11,0.14,0.03-0.05,0,0.04l0.29-1.9c-2.15,18.08-26.4,45.12-44.56,46.38s-44.78,0.73-51.88-16.91
	c-6.8-16.89-7.99-46.75-26.54-62.56c-25.06-21.36-77.72-36.96-112.31-24.65s-51.26,35.86-63.32,64.37
	c-6.49,15.35-4.76,57.09-0.8,73.28c7.24,29.67,20.13,58.04,43.03,74.91c16.74,12.32,34.21,8.72,52.48-1.18
	c17.69-9.59,26.07-14.73,45.19-21c15.3-5.02,33.6,7.79,32.51,17.61c0.85-6.2-10.46-20.07-24.15-18.26
	c-13.69,1.82-24.12,14.65-26.36,28.27c-1.66,10.09,2.73,22.95,12.88,24.18c4.99,0.6,9.82-1.87,13.94-4.76
	c10.51-7.36,23.64-26.97,23.29-29.94c0,2.54-12.41,16.25-12.22,26.04c0.2,9.79,10.97,19.44,19.31,14.02
	c9.82-3.78,16.01-13.27,21.89-22c5.88-8.72,13.03-17.85,23.32-20.06c10.29-2.21,22.87,7.48,19.17,17.33
	c5.79-5.59,1.43-16.68-6.27-19c-7.71-2.32-16.1,2.08-21.19,8.31c-5.13,6.27-7.84,15.07-5.03,22.68c2.81,7.6,12.22,12.7,19.54,9.23
	c4.01-1.9,6.67-5.77,9.09-9.49c25.94-39.85,46.61-103.14,45.97-103.48c-0.01-0.12-33.55,104.75-29.79,110.78
	c5.78,0.71,41.67-27.22,43.58-42.77c-0.42,1.72-5.7,16.66-8.89,25.08c-3.2,8.42,1.4,21.54,10.14,19.43
	c2.74-0.66,4.88-2.74,6.75-4.85c9.07-10.26,16.89-35.73,16.58-36.9c-1.51,0.66,8.16,16.93,8.92,17.61
	c3.81,3.41,15.22-1.33,21.75-5.38c7.65-4.74,14.38-16.81,6.57-21.3c-7.03-4.05-14.17,5.23-16.63,12.96
	c-3.61,11.34-4.27,27.04,6.66,31.73c11.6,4.97,22.78-8.05,27.31-19.82c4.53-11.77,20.2-31.79,21.91-28.66
	c11.69,3.87-2.54,36.44-2.52,36.44c0.04-0.07-1.55,5.02-1.51,5.02c0.04,0,16.89-41.96,24.27-42.36
	c8.57-0.46,13.35,10.42,12.01,18.89c-0.51,3.19-7.13,21.64-6.91,23.27c0.78,0.66,19.54-6.46,23.58-14.53
	c4.52-9.03,40.21-81.32,50.73-125.31c-16.14,42.52-28.53,86.47-36.96,131.16c-1.26,6.67,2.28,11.02,8.97,12.19
	c3.47,0.6,6.75-0.63,9.46-2.88c16.54-13.72,31.62-47.41,31.62-49.21c0.06,1.56-8.74,20.23-13.05,30.56s-0.02,26.53,11.13,25.58
	c5.98-0.51,10.2-5.92,13.38-11.01c8.09-12.96,14.48-26.98,18.96-41.59c-4.71,13.38-9.41,26.77-14.12,40.15
	c-1.32,3.75-2.47,8.41,0.25,11.31c1.98,2.11,5.25,2.31,8.12,1.97c13.56-1.63,19.67-13.28,25.63-25.57
	c5.95-12.29,11.9-25.94,13.21-36.28c4.98,8.72,10.86,8.64,21.32,9.79c-6.61,10.96-23.52,34.46-15.9,45.24
	c4.39,6.2,12.7,6.19,19.61,3.02c6.9-3.17,9.7-9.76,15.85-15.91c5.48-5.48,17.53-18.83,18.6-24.65c0.75-4.09,1.26-5.9-0.86-10.11
	c-1.94-3.85-9.09-6.68-13.8-4.99c-3.44,1.23-5.69,4.36-7.22,7.68c-6.42,13.96-10.28,31.58-0.96,43.8
	c10.47,13.71,33.14,12.34,46.13,1c13-11.34,18.13-29.23,20.23-46.36c1.07-8.69-3.93-20.5-7.39-24.39
	c-5.51-6.2-20.34-13.78-25.13-15.42c-19.37-6.66-69.35-13.76-112.63-9.31s-85.43,16.15-128.03,25.44
	c-24.19,1.02-50.07,0.38-70.13-13.18c-6.56-4.43-12.66-11.08-12.55-18.99c0.07-5.37,3-10.26,6.12-14.64
	c16.11-22.65,39.92-39.72,66.54-47.71c15.74-4.73,32.25-6.33,48.67-7.12c27.5-1.32,131.05,10.57,157.49,12.05
	c12.79,0.82,25.52,2.53,38.08,5.11c11.69,2.4,23.3,5.57,34.09,10.68c27.44,13,48.41,38.9,55.42,68.44
	c7.01,29.54-0.1,62.11-18.77,86.04c-28.46,36.48-77.46,49.15-123.21,56.03c-34.56,5.2-70.07,8.36-104.26,1.14
	c-18.04-3.81-35.35-10.43-53.08-15.49c-39.42-11.25-78.29-18.29-98.38-16.07c-4.56,0.5-15.61,3.34-19.41,5.91
	c-7.67,5.19-14.97,18.95-12.28,27.12c-2.97,95.11-3.4,197.3-2.76,290.78c2.25,184.49,2.07,369.01,0.02,553.38
	c1.04,0.69,2.08,1.37,3.12,2.06"/>
<path class="st2" d="M790.89,0C792,309,789,617,792,926c-3,119,1.5,243.5-1.5,362.5c0.05,0.26,0.06,0.19,0.02,0.06
	c0,0-1.83,58.7,2.08,79.58c2.69,14.38,9.03,27.4,23.42,32.95c34.15,13.17,67.32-16.7,94.62-32.61c30-17.49,70.96-27.78,102.86-8.76
	c30.51,18.19,29.9,59.25,24.11,90.06c-6.32,33.63-22.88,65.39-47.66,89.1c-24.5,23.43-56.42,38.89-90.08,43.12
	c-18.7,2.35-37.38-0.22-56.07,1.31c-15.69,1.28-31.97,6.72-41.77,19.76c-9.45,12.58-8.81,29.07-1.86,42.66
	c7.98,15.59,22.43,26.02,36.96,35.01c14.88,9.2,31.16,18.54,49.3,15.07c17.04-3.26,30.21-15.91,40.96-28.75
	c24.3-29.01,44.05-62.58,60.73-96.43c-3.17,8.43-16.68,33.85,0,0c-12.12,31.35-29.1,58.33-51.07,85.3c-0.04,0.05-0.07,0.1-0.11,0.15
	c-1.98,2.97-3.96,5.95-5.16,8.91c-0.3,0.26-0.97,0.05-0.88-0.03c-2.71,2.55-3.92,8.28-4.61,11.99c-1.53,8.28-0.44,18.12,6.66,23.64
	c7.54,5.85,20.12,5.36,28.39,1.38c-0.32,0.11-0.66,0.19-0.96,0.29c2.51-1.2,5.37-2.17,7.36-4.01c0.17-0.16,0.31-0.35,0.42-0.56
	c8.87-16.91,11.9-34.79,22.84-51.69c5-7,13-11,21-10c5.79,0.96-3-5-15,2c-16,10-17,29-15,45c0.99,6.94,3.95,14.86,10.82,17.92
	c0.12,0.05,0.25,0.1,0.37,0.13c10.97,2.9,24.84-1.11,29.81-12.05c4.9-9.37,3.54-29.19,2.62-36.66c-0.02-0.16-0.33-0.55-0.36-0.71
	c-1.33-7.15-4.93-11.62-9.52-14.38c-6-4-13.75,4.75-12.75,10.75c2,13.97,20.92,18.98,32.93,13.04c0.05-0.02,4.09-3.05,4.14-3.08
	c7.97-4.99,9.95-7.97,17.93-11.96c3.96-1.98,9.87-3.96,12.91,0.85c0.06,0.1,0.12,0.21,0.17,0.32c4.92,10.97,3.92,23.9,2.9,35.76
	c0.76-6.13,1.05-6.44,0,0c1.01-10.85,0.04-20.78-1.93-31.68c-0.03-0.16-0.08-0.32-0.15-0.47c-0.9-1.99-1-4.78-3.89-4.78
	c-19.95,0-30.94,24.86-27.03,42.85c0.02,0.1,0.05,0.19,0.08,0.29c2.01,5.89,6.92,10.78,13.78,10.86c0.11,0,0.23-0.01,0.34-0.02
	c8.96-1.08,18.83-9.05,18.95-19.42c-0.19,5.76-0.31,10.9,0,0C1074,1701,1071,1720,1066,1740c-0.33,1.31-10.43,52.43-28,70
	c-1.01,1.01-6,3.71-8,4c-6.95,0.99-11.92-1.95-14.93-6.88c-0.05-0.08-0.09-0.16-0.13-0.24c-8.95-18.97-10.92-40.92-0.94-59.88
	c16.95-30.91,50.8-38.95,79.75-54.86c0.17-0.09,0.32-0.21,0.46-0.34l2.58-2.58c0.14-0.14,0.31-0.26,0.49-0.35
	c17.91-9.03,35.72-25.97,34.73-46.86c0-3.94-4.85-6.91-9.77-6.04c-0.15,0.03-0.3,0.07-0.45,0.13c-4.9,1.97-8.83,3.97-11.78,7.91
	c-10.98,13.97-17.97,32.92-10.05,48.9c0.03,0.07,0.07,0.14,0.11,0.2c4.04,6.93,13.98,9.89,21.94,7.9c8-2,14-7,19-13c3-4,6-8,8-13
	c12-30,24-60,34.03-90.63c-0.12,0.4-6.54,16.41,0,0C1172,1618,1157,1649,1149,1686c-0.99,3.97,0.97,7.93,3.92,10.92
	c0.05,0.05,0.1,0.1,0.16,0.15c10,8.89,24.93,1.9,29.92-9.07c5-10,12-19,19-29c1.96-2.94,2-4.92,3.88-7.81
	c0.08-0.12,0.17-0.24,0.28-0.34l2.69-2.69c0.11-0.11,0.21-0.23,0.29-0.35c1.88-2.94,1.92-5.87,3.87-8.81
	c8.98-14.97,17.96-28.94,24.95-43.9c0.03-0.07,0.06-0.14,0.08-0.21c1.85-5.52,4.5-11.88,2.54-17.52c-0.3-0.86-1.18-1.39-2.08-1.28
	c-4.27,0.52-7.74,3.16-10.42,5.83c-0.05,0.05-0.1,0.11-0.15,0.16c-5.94,6.98-7.94,14.95-10.93,22.92c-14,35-25,70-37.71,104.93
	c6.56-14.19,6.58-18.34,0,0c8.67-18.85,17.63-37.77,31.53-53.73c0.12-0.13,0.26-0.25,0.4-0.35c2.83-1.92,4.81-3.81,8.59-4.8
	c0.12-0.03,0.25-0.06,0.37-0.07c7.8-0.86,10.77,5.97,10.81,11.89c0,0.09,0,0.18-0.01,0.27c-1.07,11.76-13.55,22.56-7.31,34.29
	c0.2,0.38,0.53,0.68,0.91,0.86c7.8,3.61,15.58,1.59,22.41-3.29c13.82-10.86,24.71-26.58,24.03-44.3c-0.02-0.45-0.18-0.9-0.49-1.23
	c-3.94-4.27-9.56-2.4-13.41,0.43c-0.09,0.07-0.17,0.14-0.25,0.22c-3.96,3.98-7.9,8.93-9.88,13.88c-4,11-6,26,5,34c1,1,2,0,3,1
	c2,2,3,3,5,3c12,1,21-9,28-17c1-1,0-2,1-3c10-13,16-28,16-43c0-0.71,1.01-1.42,1.95-1.77c0.56-0.21,1.18-0.15,1.69,0.15
	c6.54,3.83,12.25,8.48,18.79,12.3c0.59,0.34,0.98,0.97,0.98,1.65c-0.01,1.18-0.6,2.7-1.24,3.48c-0.11,0.13-0.24,0.24-0.39,0.33
	c-2.93,1.95-5.81,3.93-6.78,6.86c-0.94,1.89-1.89,3.78-2.83,4.82c-0.11,0.12-0.21,0.25-0.29,0.39c-4.85,8.91-4.83,19.74,1.03,28.64
	c0.06,0.09,0.13,0.18,0.2,0.26c6.01,6.92,15.94,10.85,23.89,6.88c20-11,27-35,28-56s-12-39-26-54c-3.97-3.97-8.92-6.95-12.9-10.9
	c-0.07-0.07-0.14-0.13-0.21-0.18c-18.97-13.95-38.93-22.92-61.89-26.92c-19-3-39-3-53,11c-9.97,10.97-12.98,24.93-17.96,38.89
	c-0.03,0.07-0.06,0.14-0.09,0.21c-3.96,7.97-7.96,20.78-18.8,19.91c-0.1-0.01-0.2-0.02-0.3-0.04c-9.94-2-18.9-4.99-28.85-7.97
	c-8-2-17-3-25-4c-32.98-3-63.46-4.5-96.44-1.51c-0.04,0-1.58,0-1.63,0.01c-12.76,1.16-20.96,4.51-30.94,9.5c-2,1-5,3.5-7,4.5
	c-4.66,4.66-36,0.5-55-1.5c-16.98-1-32.96,4.99-47.95,11.98c-0.04,0.02-0.07,0.03-0.11,0.05c-12.96,6.98-24.93,12.96-36.89,20.94
	c-0.03,0.02-0.07,0.05-0.1,0.07c-11.98,8.98-22.96,16.98-33.95,26.96c-6.97,5.97-10.96,12.93-15.93,19.9
	c-0.05,0.07-0.09,0.13-0.13,0.2c-3.94,6.97-3.94,14.94-3.94,22.9c-4,417,2,833-1,1250c0,15,2,30,8,44c1,2,2,5,3,7c18,34,54,50,90,54
	c55,7,108,0,162,4c16,1,31,2,47,4c27,3,53,10,77,22c21,11,39,26,52,47c8,14,13,28,15,43c1,9,1,19,0,28c-2,22-9,42-16,63
	c-8,21-17,41-32,58c-42,48-103,62-162,77c-20,5-40,6-61,2c-11.97-1.99-23.94-6.97-35.91-7c-0.06,0-0.12,0-0.18,0.01
	c-16.96,1.01-31.94,6.01-46.91,15.99c-9,6-13.84,14.67-21,23c-1,1,0,3-1,4c-9.29,17.18-12,39-9,59c3,25,28,41,51,48
	c19.96,5.99,40.92,7,60.89,0.04c0.08-0.03,0.15-0.06,0.22-0.09c2-0.98,4.93-1.97,6.9-2.95c4.93-1.97,8.89-4.92,13.8-7.88
	c0.13-0.08,0.26-0.18,0.37-0.29l2.53-2.53c0.2-0.2,0.45-0.35,0.72-0.45c2.75-1.03,4.64-2.91,6.28-4.59
	c0.03-0.03,0.06-0.06,0.09-0.08c13.08-11.44,23.18-26.36,28.43-42.96c-1.27,2.5-2.44,5.05-3.54,7.63
	c-9.22,21.64-12.84,45.08-17.88,67.9c-4.86,22.02-11.19,44.49-25.32,62.54c-3.42,4.37-7.67,9.8-13.56,10.61
	c-5.5,0.75-10.08-3.34-12.09-8.15c-5.04-12.11,6.2-26.41,12.25-36.11c14.86-23.79,32.44-45.73,50.53-67.11
	c8.58-10.14,16.86-21.05,26.78-29.92c8.61-7.7,20.3-14.79,32.16-10.49c-12.69-7.12-31.28,4.59-29.5,19.28
	c1.56,12.78,17.63,21.66,29.14,15.61c12.83-6.75,21.51-32.86,6.73-41.87c-6.08-3.71-14.15-1.58-15.7,5.89
	c-1.58,7.56,6.44,9.87,12.41,10.6c13.11,1.6,27.51-5.49,32.74-17.92c-4.8,8.98-8.91,18.88-10.69,28.94
	c-0.99,5.58-1.82,13.37,5.33,14.62c5.82,1.02,11.32-3.34,15.15-7.18c10.75-10.78,19.7-40.52,20.43-42.25c-0.41,1.7-1.44,3.84,0,0
	c4.17,1.93-5.44,25.81-9.49,38.87c-0.06,0.2-0.09,0.41-0.09,0.62c0.07,2.71,0.99,4.56,2.76,5.55c0.15,0.08,0.32,0.15,0.48,0.2
	c9.84,2.8,17.73-4.08,22.69-11.98c0.04-0.06,0.08-0.13,0.11-0.19c5.99-12,13.16-30.6,16.68-35.28c0.15-0.11-0.36,0.59,0,0
	c5.58,4.62,9.86,11.68,11.11,18.4c0.11,0.62-0.1,1.24-0.53,1.69c-6.88,7.02-15.04,17.63-7.3,27.3c9,10,21,1,25-9c5-12,7-29,22-32
	c2.94-0.98,4.92,2.83,5,4.87c0,0.09,0,0.17-0.01,0.26c-1.06,15.04-13.7,44.03-13.78,44.19c0.46-0.7-0.52,1.44,0,0
	c8.77-13.29,10.78-28.25,19.73-41.23c0.04-0.05,0.08-0.11,0.12-0.16c5.01-6.02,13.97-16.9,20.94-9.93c4,3,6,10,3,16
	c-5,10-18,27-4,33c1.96,0.98,3.91-1.87,5.87-3.87c0.09-0.09,0.16-0.18,0.23-0.28c3.9-5.92,10.95-27.72,16.85-41.3
	c-4.08,8.84-4.54,21.41-4.5,28.09c0.01,1.54,1.72,2.48,3.02,1.65c8.07-5.17,29.59-13.11,25.54-29.29c-1-4-5-8-10-8c-4,0-8,1-11,4
	c-13,11-10.84,42.12,0,49c3.43,2.08,16-2,22-7c13-11,19-27,24.12-42.36c-1.76,6.78-4.36,12.7,0,0C1333,3509,1329,3521,1326,3534
	c-1,5,1,11,6,11c7.96,0.99,12.95-4.94,17.92-10.9c0.05-0.06,0.1-0.13,0.15-0.2c7.96-12.03,12.96-35.53,12.96-35.53
	s-21.61,84.51-35.03,128.63c-2,6-4.93,12.21-8,19c-7.35,15.92-16,31-34,35c-17,4-28-13-28-28c0-25,11-48,32-63
	c14.74-10.53,47.27-20.63,49.89-20.99c0.11-0.02,0.22-0.04,0.33-0.08c3.23-1.06,12.83-3.95,14.79-4.93c16-8,29-19,38-35
	c9-18,15-36,14-56c-1-14-7-28-18-37c-13-10-29-12-44-10c-35,5-68,9-103,17c-71,18-137,28-208,45c-6.95,1.99-14.88-2.93-14.02-10.82
	c0.01-0.12,0.03-0.23,0.06-0.34c1.01-3.94,3.01-7.85,6.96-8.83c7.94-1.98,13.91,3.91,14,10.84c0,0.1,0,0.21-0.01,0.32
	c-2.11,20.85-27.03,21.85-43.98,23.84c-38,4-71.98-9.16-109-14c-40.35-5.27-76.17,51.01-81.58,58.3c-0.02,0.03-0.04,0.05-0.06,0.07
	c-8.76,10.16-12.58,29.33-13.96,47.43c-1.99,26-1.45,52.12-1.54,78.2c-0.63,179.22-1.26,358.44-0.48,537.7
	c0,0.75-0.42,1.44-1.09,1.77l0,0"/>
</svg>
